# xmcd
#
# Track frame offsets:
# 150
# 12788
# 26663
# 42452
# 56737
# 69778
# 86869
#
# Disc length: 1295 seconds
#
#
# Revision: 0
# Processed by: cddbd v1.5.1PL0 Copyright (c) Steve Scherf et al.
# Submitted via: FreeRIP 2.70 
#
DISCID=55050d07
DTITLE=Chris Field - Acoustic Session
DYEAR=2003
DGENRE=blues
TTITLE0=Monolic
TTITLE1=Song In My Head
TTITLE2=Doing Time
TTITLE3=Micheal's Dream
TTITLE4=Highway #2
TTITLE5=Shadow Tap
TTITLE6=Judgement Day
EXTD=Bluesfestradio.com
EXTT0=
EXTT1=
EXTT2=
EXTT3=
EXTT4=
EXTT5=
EXTT6=
PLAYORDER=
